<svg version="1.1" xmlns="http://www.w3.org/2000/svg" xmlns:xlink="http://www.w3.org/1999/xlink" width="1095" height="600"><defs/><g><text fill="#eeeeee" stroke="none" font-family="Arial" font-size="24px" font-style="normal" font-weight="normal" text-decoration="none" x="0" y="0"></text><text fill="#eeeeee" stroke="none" font-family="Arial" font-size="24px" font-style="normal" font-weight="normal" text-decoration="none" x="0" y="30"></text><text fill="#eeeeee" stroke="none" font-family="Arial" font-size="24px" font-style="normal" font-weight="normal" text-decoration="none" x="0" y="60"></text><text fill="#eeeeee" stroke="none" font-family="Arial" font-size="24px" font-style="normal" font-weight="normal" text-decoration="none" x="0" y="90"></text><text fill="#eeeeee" stroke="none" font-family="Arial" font-size="24px" font-style="normal" font-weight="normal" text-decoration="none" x="0" y="120"></text><text fill="#eeeeee" stroke="none" font-family="Arial" font-size="24px" font-style="normal" font-weight="normal" text-decoration="none" x="0" y="150"></text><text fill="#eeeeee" stroke="none" font-family="Arial" font-size="24px" font-style="normal" font-weight="normal" text-decoration="none" x="0" y="180"></text><text fill="#eeeeee" stroke="none" font-family="Arial" font-size="24px" font-style="normal" font-weight="normal" text-decoration="none" x="0" y="210"></text><text fill="#eeeeee" stroke="none" font-family="Arial" font-size="24px" font-style="normal" font-weight="normal" text-decoration="none" x="0" y="240"></text><text fill="#eeeeee" stroke="none" font-family="Arial" font-size="24px" font-style="normal" font-weight="normal" text-decoration="none" x="0" y="270"></text><text fill="#eeeeee" stroke="none" font-family="Arial" font-size="24px" font-style="normal" font-weight="normal" text-decoration="none" x="0" y="300"></text><text fill="#eeeeee" stroke="none" font-family="Arial" font-size="24px" font-style="normal" font-weight="normal" text-decoration="none" x="0" y="330"></text><text fill="#eeeeee" stroke="none" font-family="Arial" font-size="24px" font-style="normal" font-weight="normal" text-decoration="none" x="0" y="360"></text><text fill="#eeeeee" stroke="none" font-family="Arial" font-size="24px" font-style="normal" font-weight="normal" text-decoration="none" x="0" y="390"></text><text fill="#eeeeee" stroke="none" font-family="Arial" font-size="24px" font-style="normal" font-weight="normal" text-decoration="none" x="0" y="420"></text><text fill="#eeeeee" stroke="none" font-family="Arial" font-size="24px" font-style="normal" font-weight="normal" text-decoration="none" x="0" y="450"></text><text fill="#eeeeee" stroke="none" font-family="Arial" font-size="24px" font-style="normal" font-weight="normal" text-decoration="none" x="0" y="480"></text><text fill="#eeeeee" stroke="none" font-family="Arial" font-size="24px" font-style="normal" font-weight="normal" text-decoration="none" x="0" y="510"></text><text fill="#eeeeee" stroke="none" font-family="Arial" font-size="24px" font-style="normal" font-weight="normal" text-decoration="none" x="0" y="540"></text><text fill="#eeeeee" stroke="none" font-family="Arial" font-size="24px" font-style="normal" font-weight="normal" text-decoration="none" x="0" y="570"></text><text fill="#eeeeee" stroke="none" font-family="Arial" font-size="24px" font-style="normal" font-weight="normal" text-decoration="none" x="200" y="0"></text><text fill="#eeeeee" stroke="none" font-family="Arial" font-size="24px" font-style="normal" font-weight="normal" text-decoration="none" x="200" y="30"></text><text fill="#eeeeee" stroke="none" font-family="Arial" font-size="24px" font-style="normal" font-weight="normal" text-decoration="none" x="200" y="60"></text><text fill="#eeeeee" stroke="none" font-family="Arial" font-size="24px" font-style="normal" font-weight="normal" text-decoration="none" x="200" y="90"></text><text fill="#eeeeee" stroke="none" font-family="Arial" font-size="24px" font-style="normal" font-weight="normal" text-decoration="none" x="200" y="120"></text><text fill="#eeeeee" stroke="none" font-family="Arial" font-size="24px" font-style="normal" font-weight="normal" text-decoration="none" x="200" y="150"></text><text fill="#eeeeee" stroke="none" font-family="Arial" font-size="24px" font-style="normal" font-weight="normal" text-decoration="none" x="200" y="180"></text><text fill="#eeeeee" stroke="none" font-family="Arial" font-size="24px" font-style="normal" font-weight="normal" text-decoration="none" x="200" y="210"></text><text fill="#eeeeee" stroke="none" font-family="Arial" font-size="24px" font-style="normal" font-weight="normal" text-decoration="none" x="200" y="240"></text><text fill="#eeeeee" stroke="none" font-family="Arial" font-size="24px" font-style="normal" font-weight="normal" text-decoration="none" x="200" y="270"></text><text fill="#eeeeee" stroke="none" font-family="Arial" font-size="24px" font-style="normal" font-weight="normal" text-decoration="none" x="200" y="300"></text><text fill="#eeeeee" stroke="none" font-family="Arial" font-size="24px" font-style="normal" font-weight="normal" text-decoration="none" x="200" y="330"></text><text fill="#eeeeee" stroke="none" font-family="Arial" font-size="24px" font-style="normal" font-weight="normal" text-decoration="none" x="200" y="360"></text><text fill="#eeeeee" stroke="none" font-family="Arial" font-size="24px" font-style="normal" font-weight="normal" text-decoration="none" x="200" y="390"></text><text fill="#eeeeee" stroke="none" font-family="Arial" font-size="24px" font-style="normal" font-weight="normal" text-decoration="none" x="200" y="420"></text><text fill="#eeeeee" stroke="none" font-family="Arial" font-size="24px" font-style="normal" font-weight="normal" text-decoration="none" x="200" y="450"></text><text fill="#eeeeee" stroke="none" font-family="Arial" font-size="24px" font-style="normal" font-weight="normal" text-decoration="none" x="200" y="480"></text><text fill="#eeeeee" stroke="none" font-family="Arial" font-size="24px" font-style="normal" font-weight="normal" text-decoration="none" x="200" y="510"></text><text fill="#eeeeee" stroke="none" font-family="Arial" font-size="24px" font-style="normal" font-weight="normal" text-decoration="none" x="200" y="540"></text><text fill="#eeeeee" stroke="none" font-family="Arial" font-size="24px" font-style="normal" font-weight="normal" text-decoration="none" x="200" y="570"></text><text fill="#eeeeee" stroke="none" font-family="Arial" font-size="24px" font-style="normal" font-weight="normal" text-decoration="none" x="400" y="0"></text><text fill="#eeeeee" stroke="none" font-family="Arial" font-size="24px" font-style="normal" font-weight="normal" text-decoration="none" x="400" y="30"></text><text fill="#eeeeee" stroke="none" font-family="Arial" font-size="24px" font-style="normal" font-weight="normal" text-decoration="none" x="400" y="60"></text><text fill="#eeeeee" stroke="none" font-family="Arial" font-size="24px" font-style="normal" font-weight="normal" text-decoration="none" x="400" y="90"></text><text fill="#eeeeee" stroke="none" font-family="Arial" font-size="24px" font-style="normal" font-weight="normal" text-decoration="none" x="400" y="120"></text><text fill="#eeeeee" stroke="none" font-family="Arial" font-size="24px" font-style="normal" font-weight="normal" text-decoration="none" x="400" y="150"></text><text fill="#eeeeee" stroke="none" font-family="Arial" font-size="24px" font-style="normal" font-weight="normal" text-decoration="none" x="400" y="180"></text><text fill="#eeeeee" stroke="none" font-family="Arial" font-size="24px" font-style="normal" font-weight="normal" text-decoration="none" x="400" y="210"></text><text fill="#eeeeee" stroke="none" font-family="Arial" font-size="24px" font-style="normal" font-weight="normal" text-decoration="none" x="400" y="240"></text><text fill="#eeeeee" stroke="none" font-family="Arial" font-size="24px" font-style="normal" font-weight="normal" text-decoration="none" x="400" y="270"></text><text fill="#eeeeee" stroke="none" font-family="Arial" font-size="24px" font-style="normal" font-weight="normal" text-decoration="none" x="400" y="300"></text><text fill="#eeeeee" stroke="none" font-family="Arial" font-size="24px" font-style="normal" font-weight="normal" text-decoration="none" x="400" y="330"></text><text fill="#eeeeee" stroke="none" font-family="Arial" font-size="24px" font-style="normal" font-weight="normal" text-decoration="none" x="400" y="360"></text><text fill="#eeeeee" stroke="none" font-family="Arial" font-size="24px" font-style="normal" font-weight="normal" text-decoration="none" x="400" y="390"></text><text fill="#eeeeee" stroke="none" font-family="Arial" font-size="24px" font-style="normal" font-weight="normal" text-decoration="none" x="400" y="420"></text><text fill="#eeeeee" stroke="none" font-family="Arial" font-size="24px" font-style="normal" font-weight="normal" text-decoration="none" x="400" y="450"></text><text fill="#eeeeee" stroke="none" font-family="Arial" font-size="24px" font-style="normal" font-weight="normal" text-decoration="none" x="400" y="480"></text><text fill="#eeeeee" stroke="none" font-family="Arial" font-size="24px" font-style="normal" font-weight="normal" text-decoration="none" x="400" y="510"></text><text fill="#eeeeee" stroke="none" font-family="Arial" font-size="24px" font-style="normal" font-weight="normal" text-decoration="none" x="400" y="540"></text><text fill="#eeeeee" stroke="none" font-family="Arial" font-size="24px" font-style="normal" font-weight="normal" text-decoration="none" x="400" y="570"></text><text fill="#eeeeee" stroke="none" font-family="Arial" font-size="24px" font-style="normal" font-weight="normal" text-decoration="none" x="600" y="0"></text><text fill="#eeeeee" stroke="none" font-family="Arial" font-size="24px" font-style="normal" font-weight="normal" text-decoration="none" x="600" y="30"></text><text fill="#eeeeee" stroke="none" font-family="Arial" font-size="24px" font-style="normal" font-weight="normal" text-decoration="none" x="600" y="60"></text><text fill="#eeeeee" stroke="none" font-family="Arial" font-size="24px" font-style="normal" font-weight="normal" text-decoration="none" x="600" y="90"></text><text fill="#eeeeee" stroke="none" font-family="Arial" font-size="24px" font-style="normal" font-weight="normal" text-decoration="none" x="600" y="120"></text><text fill="#eeeeee" stroke="none" font-family="Arial" font-size="24px" font-style="normal" font-weight="normal" text-decoration="none" x="600" y="150"></text><text fill="#eeeeee" stroke="none" font-family="Arial" font-size="24px" font-style="normal" font-weight="normal" text-decoration="none" x="600" y="180"></text><text fill="#eeeeee" stroke="none" font-family="Arial" font-size="24px" font-style="normal" font-weight="normal" text-decoration="none" x="600" y="210"></text><text fill="#eeeeee" stroke="none" font-family="Arial" font-size="24px" font-style="normal" font-weight="normal" text-decoration="none" x="600" y="240"></text><text fill="#eeeeee" stroke="none" font-family="Arial" font-size="24px" font-style="normal" font-weight="normal" text-decoration="none" x="600" y="270"></text><text fill="#eeeeee" stroke="none" font-family="Arial" font-size="24px" font-style="normal" font-weight="normal" text-decoration="none" x="600" y="300"></text><text fill="#eeeeee" stroke="none" font-family="Arial" font-size="24px" font-style="normal" font-weight="normal" text-decoration="none" x="600" y="330"></text><text fill="#eeeeee" stroke="none" font-family="Arial" font-size="24px" font-style="normal" font-weight="normal" text-decoration="none" x="600" y="360"></text><text fill="#eeeeee" stroke="none" font-family="Arial" font-size="24px" font-style="normal" font-weight="normal" text-decoration="none" x="600" y="390"></text><text fill="#eeeeee" stroke="none" font-family="Arial" font-size="24px" font-style="normal" font-weight="normal" text-decoration="none" x="600" y="420"></text><text fill="#eeeeee" stroke="none" font-family="Arial" font-size="24px" font-style="normal" font-weight="normal" text-decoration="none" x="600" y="450"></text><text fill="#eeeeee" stroke="none" font-family="Arial" font-size="24px" font-style="normal" font-weight="normal" text-decoration="none" x="600" y="480"></text><text fill="#eeeeee" stroke="none" font-family="Arial" font-size="24px" font-style="normal" font-weight="normal" text-decoration="none" x="600" y="510"></text><text fill="#eeeeee" stroke="none" font-family="Arial" font-size="24px" font-style="normal" font-weight="normal" text-decoration="none" x="600" y="540"></text><text fill="#eeeeee" stroke="none" font-family="Arial" font-size="24px" font-style="normal" font-weight="normal" text-decoration="none" x="600" y="570"></text><text fill="#eeeeee" stroke="none" font-family="Arial" font-size="24px" font-style="normal" font-weight="normal" text-decoration="none" x="800" y="0"></text><text fill="#eeeeee" stroke="none" font-family="Arial" font-size="24px" font-style="normal" font-weight="normal" text-decoration="none" x="800" y="30"></text><text fill="#eeeeee" stroke="none" font-family="Arial" font-size="24px" font-style="normal" font-weight="normal" text-decoration="none" x="800" y="60"></text><text fill="#eeeeee" stroke="none" font-family="Arial" font-size="24px" font-style="normal" font-weight="normal" text-decoration="none" x="800" y="90"></text><text fill="#eeeeee" stroke="none" font-family="Arial" font-size="24px" font-style="normal" font-weight="normal" text-decoration="none" x="800" y="120"></text><text fill="#eeeeee" stroke="none" font-family="Arial" font-size="24px" font-style="normal" font-weight="normal" text-decoration="none" x="800" y="150"></text><text fill="#eeeeee" stroke="none" font-family="Arial" font-size="24px" font-style="normal" font-weight="normal" text-decoration="none" x="800" y="180"></text><text fill="#eeeeee" stroke="none" font-family="Arial" font-size="24px" font-style="normal" font-weight="normal" text-decoration="none" x="800" y="210"></text><text fill="#eeeeee" stroke="none" font-family="Arial" font-size="24px" font-style="normal" font-weight="normal" text-decoration="none" x="800" y="240"></text><text fill="#eeeeee" stroke="none" font-family="Arial" font-size="24px" font-style="normal" font-weight="normal" text-decoration="none" x="800" y="270"></text><text fill="#eeeeee" stroke="none" font-family="Arial" font-size="24px" font-style="normal" font-weight="normal" text-decoration="none" x="800" y="300"></text><text fill="#eeeeee" stroke="none" font-family="Arial" font-size="24px" font-style="normal" font-weight="normal" text-decoration="none" x="800" y="330"></text><text fill="#eeeeee" stroke="none" font-family="Arial" font-size="24px" font-style="normal" font-weight="normal" text-decoration="none" x="800" y="360"></text><text fill="#eeeeee" stroke="none" font-family="Arial" font-size="24px" font-style="normal" font-weight="normal" text-decoration="none" x="800" y="390"></text><text fill="#eeeeee" stroke="none" font-family="Arial" font-size="24px" font-style="normal" font-weight="normal" text-decoration="none" x="800" y="420"></text><text fill="#eeeeee" stroke="none" font-family="Arial" font-size="24px" font-style="normal" font-weight="normal" text-decoration="none" x="800" y="450"></text><text fill="#eeeeee" stroke="none" font-family="Arial" font-size="24px" font-style="normal" font-weight="normal" text-decoration="none" x="800" y="480"></text><text fill="#eeeeee" stroke="none" font-family="Arial" font-size="24px" font-style="normal" font-weight="normal" text-decoration="none" x="800" y="510"></text><text fill="#eeeeee" stroke="none" font-family="Arial" font-size="24px" font-style="normal" font-weight="normal" text-decoration="none" x="800" y="540"></text><text fill="#eeeeee" stroke="none" font-family="Arial" font-size="24px" font-style="normal" font-weight="normal" text-decoration="none" x="800" y="570"></text><text fill="#eeeeee" stroke="none" font-family="Arial" font-size="24px" font-style="normal" font-weight="normal" text-decoration="none" x="1000" y="0"></text><text fill="#eeeeee" stroke="none" font-family="Arial" font-size="24px" font-style="normal" font-weight="normal" text-decoration="none" x="1000" y="30"></text><text fill="#eeeeee" stroke="none" font-family="Arial" font-size="24px" font-style="normal" font-weight="normal" text-decoration="none" x="1000" y="60"></text><text fill="#eeeeee" stroke="none" font-family="Arial" font-size="24px" font-style="normal" font-weight="normal" text-decoration="none" x="1000" y="90"></text><text fill="#eeeeee" stroke="none" font-family="Arial" font-size="24px" font-style="normal" font-weight="normal" text-decoration="none" x="1000" y="120"></text><text fill="#eeeeee" stroke="none" font-family="Arial" font-size="24px" font-style="normal" font-weight="normal" text-decoration="none" x="1000" y="150"></text><text fill="#eeeeee" stroke="none" font-family="Arial" font-size="24px" font-style="normal" font-weight="normal" text-decoration="none" x="1000" y="180"></text><text fill="#eeeeee" stroke="none" font-family="Arial" font-size="24px" font-style="normal" font-weight="normal" text-decoration="none" x="1000" y="210"></text><text fill="#eeeeee" stroke="none" font-family="Arial" font-size="24px" font-style="normal" font-weight="normal" text-decoration="none" x="1000" y="240"></text><text fill="#eeeeee" stroke="none" font-family="Arial" font-size="24px" font-style="normal" font-weight="normal" text-decoration="none" x="1000" y="270"></text><text fill="#eeeeee" stroke="none" font-family="Arial" font-size="24px" font-style="normal" font-weight="normal" text-decoration="none" x="1000" y="300"></text><text fill="#eeeeee" stroke="none" font-family="Arial" font-size="24px" font-style="normal" font-weight="normal" text-decoration="none" x="1000" y="330"></text><text fill="#eeeeee" stroke="none" font-family="Arial" font-size="24px" font-style="normal" font-weight="normal" text-decoration="none" x="1000" y="360"></text><text fill="#eeeeee" stroke="none" font-family="Arial" font-size="24px" font-style="normal" font-weight="normal" text-decoration="none" x="1000" y="390"></text><text fill="#eeeeee" stroke="none" font-family="Arial" font-size="24px" font-style="normal" font-weight="normal" text-decoration="none" x="1000" y="420"></text><text fill="#eeeeee" stroke="none" font-family="Arial" font-size="24px" font-style="normal" font-weight="normal" text-decoration="none" x="1000" y="450"></text><text fill="#eeeeee" stroke="none" font-family="Arial" font-size="24px" font-style="normal" font-weight="normal" text-decoration="none" x="1000" y="480"></text><text fill="#eeeeee" stroke="none" font-family="Arial" font-size="24px" font-style="normal" font-weight="normal" text-decoration="none" x="1000" y="510"></text><text fill="#eeeeee" stroke="none" font-family="Arial" font-size="24px" font-style="normal" font-weight="normal" text-decoration="none" x="1000" y="540"></text><text fill="#eeeeee" stroke="none" font-family="Arial" font-size="24px" font-style="normal" font-weight="normal" text-decoration="none" x="1000" y="570"></text><g transform="translate(-118,-196) scale(1,1)"><rect fill="#C0C0C0" stroke="none" x="135" y="367" width="145.54443359375" height="29" opacity="0.2"/></g><g transform="translate(-118,-196) scale(1,1)"><rect fill="#ffffff" stroke="none" x="128" y="360" width="145.54443359375" height="29"/></g><g transform="translate(-118,-196) scale(1,1)"><path fill="none" stroke="#000000" d="M 128 360 L 273.54443359375 360 L 273.54443359375 389 L 128 389 L 128 360 Z Z" stroke-miterlimit="10"/></g><g transform="translate(-118,-196) scale(1,1)"><rect fill="#ffffff" stroke="none" x="128" y="360" width="145.54443359375" height="29"/></g><g transform="translate(-118,-196) scale(1,1)"><path fill="none" stroke="#000000" d="M 128 360 L 273.54443359375 360 L 273.54443359375 389 L 128 389 L 128 360 Z Z" stroke-miterlimit="10"/></g><g transform="translate(-118,-196) scale(1,1)"><g><path fill="none" stroke="none"/><text fill="#000000" stroke="none" font-family="Arial" font-size="13px" font-style="normal" font-weight="bold" text-decoration="none" x="132.5" y="377.5">GameSeachController</text></g></g><g transform="translate(-118,-196) scale(1,1)"><rect fill="#C0C0C0" stroke="none" x="383" y="367" width="134.75341796875" height="29" opacity="0.2"/></g><g transform="translate(-118,-196) scale(1,1)"><rect fill="#ffffff" stroke="none" x="376" y="360" width="134.75341796875" height="29"/></g><g transform="translate(-118,-196) scale(1,1)"><path fill="none" stroke="#000000" d="M 376 360 L 510.75341796875 360 L 510.75341796875 389 L 376 389 L 376 360 Z Z" stroke-miterlimit="10"/></g><g transform="translate(-118,-196) scale(1,1)"><rect fill="#ffffff" stroke="none" x="376" y="360" width="134.75341796875" height="29"/></g><g transform="translate(-118,-196) scale(1,1)"><path fill="none" stroke="#000000" d="M 376 360 L 510.75341796875 360 L 510.75341796875 389 L 376 389 L 376 360 Z Z" stroke-miterlimit="10"/></g><g transform="translate(-118,-196) scale(1,1)"><g><path fill="none" stroke="none"/><text fill="#000000" stroke="none" font-family="Arial" font-size="13px" font-style="normal" font-weight="bold" text-decoration="none" x="380.5" y="377.5">GameSearchService</text></g></g><g transform="translate(-118,-196) scale(1,1)"><path fill="none" stroke="#000000" d="M 275 374 L 375 374" stroke-miterlimit="10"/></g><g transform="translate(-118,-196) scale(1,1)"><path fill="none" stroke="#000000" d="M 275 374 L 375 374" stroke-miterlimit="10"/></g><g transform="translate(-118,-196) scale(1,1)"><path fill="none" stroke="#000000" d="M 345 364 L 305 364" stroke-miterlimit="10"/></g><g transform="translate(-118,-196) scale(1,1)"><path fill="#000000" stroke="none" d="M 333 368 L 345 364 L 333 359"/></g><g transform="translate(-118,-196) scale(1,1)"><g><path fill="none" stroke="none"/><text fill="#000000" stroke="none" font-family="Arial" font-size="13px" font-style="normal" font-weight="normal" text-decoration="none" x="254.958740234375" y="346.5">1 : joinQueue(String name)</text></g></g><g transform="translate(-118,-196) scale(1,1)"><path fill="none" stroke="#000000" d="M 275 374 L 375 374" stroke-miterlimit="10"/></g><g transform="translate(-118,-196) scale(1,1)"><rect fill="#C0C0C0" stroke="none" x="399" y="487" width="99" height="29" opacity="0.2"/></g><g transform="translate(-118,-196) scale(1,1)"><rect fill="#ffffff" stroke="none" x="392" y="480" width="99" height="29"/></g><g transform="translate(-118,-196) scale(1,1)"><path fill="none" stroke="#000000" d="M 392 480 L 491 480 L 491 509 L 392 509 L 392 480 Z Z" stroke-miterlimit="10"/></g><g transform="translate(-118,-196) scale(1,1)"><rect fill="#ffffff" stroke="none" x="392" y="480" width="99" height="29"/></g><g transform="translate(-118,-196) scale(1,1)"><path fill="none" stroke="#000000" d="M 392 480 L 491 480 L 491 509 L 392 509 L 392 480 Z Z" stroke-miterlimit="10"/></g><g transform="translate(-118,-196) scale(1,1)"><g><path fill="none" stroke="none"/><text fill="#000000" stroke="none" font-family="Arial" font-size="13px" font-style="normal" font-weight="bold" text-decoration="none" x="400.3037109375" y="497.5">GameService</text></g></g><g transform="translate(-118,-196) scale(1,1)"><path fill="none" stroke="#000000" d="M 275 374 L 375 374" stroke-miterlimit="10"/></g><g transform="translate(-118,-196) scale(1,1)"><rect fill="#C0C0C0" stroke="none" x="703" y="255" width="140.49169921875" height="29" opacity="0.2"/></g><g transform="translate(-118,-196) scale(1,1)"><rect fill="#ffffff" stroke="none" x="696" y="248" width="140.49169921875" height="29"/></g><g transform="translate(-118,-196) scale(1,1)"><path fill="none" stroke="#000000" d="M 696 248 L 836.49169921875 248 L 836.49169921875 277 L 696 277 L 696 248 Z Z" stroke-miterlimit="10"/></g><g transform="translate(-118,-196) scale(1,1)"><rect fill="#ffffff" stroke="none" x="696" y="248" width="140.49169921875" height="29"/></g><g transform="translate(-118,-196) scale(1,1)"><path fill="none" stroke="#000000" d="M 696 248 L 836.49169921875 248 L 836.49169921875 277 L 696 277 L 696 248 Z Z" stroke-miterlimit="10"/></g><g transform="translate(-118,-196) scale(1,1)"><g><path fill="none" stroke="none"/><text fill="#000000" stroke="none" font-family="Arial" font-size="13px" font-style="normal" font-weight="bold" text-decoration="none" x="700.5" y="265.5">GameHandlerFactory</text></g></g><g transform="translate(-118,-196) scale(1,1)"><rect fill="#C0C0C0" stroke="none" x="919" y="255" width="135.42626953125" height="29" opacity="0.2"/></g><g transform="translate(-118,-196) scale(1,1)"><rect fill="#ffffff" stroke="none" x="912" y="248" width="135.42626953125" height="29"/></g><g transform="translate(-118,-196) scale(1,1)"><path fill="none" stroke="#000000" d="M 912 248 L 1047.42626953125 248 L 1047.42626953125 277 L 912 277 L 912 248 Z Z" stroke-miterlimit="10"/></g><g transform="translate(-118,-196) scale(1,1)"><rect fill="#ffffff" stroke="none" x="912" y="248" width="135.42626953125" height="29"/></g><g transform="translate(-118,-196) scale(1,1)"><path fill="none" stroke="#000000" d="M 912 248 L 1047.42626953125 248 L 1047.42626953125 277 L 912 277 L 912 248 Z Z" stroke-miterlimit="10"/></g><g transform="translate(-118,-196) scale(1,1)"><g><path fill="none" stroke="none"/><text fill="#000000" stroke="none" font-family="Arial" font-size="13px" font-style="normal" font-weight="bold" text-decoration="none" x="916.5" y="265.5">GameEngineFactory</text></g></g><g transform="translate(-118,-196) scale(1,1)"><path fill="none" stroke="#000000" d="M 462 479 L 744 278" stroke-miterlimit="10"/></g><g transform="translate(-118,-196) scale(1,1)"><path fill="none" stroke="#000000" d="M 837 262 L 911 262" stroke-miterlimit="10"/></g><g transform="translate(-118,-196) scale(1,1)"><path fill="none" stroke="#000000" d="M 837 262 L 911 262" stroke-miterlimit="10"/></g><g transform="translate(-118,-196) scale(1,1)"><rect fill="#C0C0C0" stroke="none" x="663" y="487" width="211.97265625" height="29" opacity="0.2"/></g><g transform="translate(-118,-196) scale(1,1)"><rect fill="#ffffff" stroke="none" x="656" y="480" width="211.97265625" height="29"/></g><g transform="translate(-118,-196) scale(1,1)"><path fill="none" stroke="#000000" d="M 656 480 L 867.97265625 480 L 867.97265625 509 L 656 509 L 656 480 Z Z" stroke-miterlimit="10"/></g><g transform="translate(-118,-196) scale(1,1)"><rect fill="#ffffff" stroke="none" x="656" y="480" width="211.97265625" height="29"/></g><g transform="translate(-118,-196) scale(1,1)"><path fill="none" stroke="#000000" d="M 656 480 L 867.97265625 480 L 867.97265625 509 L 656 509 L 656 480 Z Z" stroke-miterlimit="10"/></g><g transform="translate(-118,-196) scale(1,1)"><g><path fill="none" stroke="none"/><text fill="#000000" stroke="none" font-family="Arial" font-size="13px" font-style="normal" font-weight="bold" text-decoration="none" x="662.66455078125" y="497.5">Map.String.GameEngineHandler</text></g></g><g transform="translate(-118,-196) scale(1,1)"><path fill="none" stroke="#000000" d="M 492 494 L 655 494" stroke-miterlimit="10"/></g><g transform="translate(-118,-196) scale(1,1)"><rect fill="#C0C0C0" stroke="none" x="1111" y="615" width="99" height="29" opacity="0.2"/></g><g transform="translate(-118,-196) scale(1,1)"><rect fill="#ffffff" stroke="none" x="1104" y="608" width="99" height="29"/></g><g transform="translate(-118,-196) scale(1,1)"><path fill="none" stroke="#000000" d="M 1104 608 L 1203 608 L 1203 637 L 1104 637 L 1104 608 Z Z" stroke-miterlimit="10"/></g><g transform="translate(-118,-196) scale(1,1)"><rect fill="#ffffff" stroke="none" x="1104" y="608" width="99" height="29"/></g><g transform="translate(-118,-196) scale(1,1)"><path fill="none" stroke="#000000" d="M 1104 608 L 1203 608 L 1203 637 L 1104 637 L 1104 608 Z Z" stroke-miterlimit="10"/></g><g transform="translate(-118,-196) scale(1,1)"><g><path fill="none" stroke="none"/><text fill="#000000" stroke="none" font-family="Arial" font-size="13px" font-style="normal" font-weight="bold" text-decoration="none" x="1113.766845703125" y="625.5">GameEngine</text></g></g><g transform="translate(-118,-196) scale(1,1)"><rect fill="#C0C0C0" stroke="none" x="911" y="615" width="136.8671875" height="29" opacity="0.2"/></g><g transform="translate(-118,-196) scale(1,1)"><rect fill="#ffffff" stroke="none" x="904" y="608" width="136.8671875" height="29"/></g><g transform="translate(-118,-196) scale(1,1)"><path fill="none" stroke="#000000" d="M 904 608 L 1040.8671875 608 L 1040.8671875 637 L 904 637 L 904 608 Z Z" stroke-miterlimit="10"/></g><g transform="translate(-118,-196) scale(1,1)"><rect fill="#ffffff" stroke="none" x="904" y="608" width="136.8671875" height="29"/></g><g transform="translate(-118,-196) scale(1,1)"><path fill="none" stroke="#000000" d="M 904 608 L 1040.8671875 608 L 1040.8671875 637 L 904 637 L 904 608 Z Z" stroke-miterlimit="10"/></g><g transform="translate(-118,-196) scale(1,1)"><g><path fill="none" stroke="none"/><text fill="#000000" stroke="none" font-family="Arial" font-size="13px" font-style="normal" font-weight="bold" text-decoration="none" x="908.5" y="625.5">GameEngineHandler</text></g></g><g transform="translate(-118,-196) scale(1,1)"><path fill="none" stroke="#000000" d="M 462 479 L 744 278" stroke-miterlimit="10"/></g><g transform="translate(-118,-196) scale(1,1)"><rect fill="#C0C0C0" stroke="none" x="711" y="615" width="136.8671875" height="29" opacity="0.2"/></g><g transform="translate(-118,-196) scale(1,1)"><rect fill="#ffffff" stroke="none" x="704" y="608" width="136.8671875" height="29"/></g><g transform="translate(-118,-196) scale(1,1)"><path fill="none" stroke="#000000" d="M 704 608 L 840.8671875 608 L 840.8671875 637 L 704 637 L 704 608 Z Z" stroke-miterlimit="10"/></g><g transform="translate(-118,-196) scale(1,1)"><rect fill="#ffffff" stroke="none" x="704" y="608" width="136.8671875" height="29"/></g><g transform="translate(-118,-196) scale(1,1)"><path fill="none" stroke="#000000" d="M 704 608 L 840.8671875 608 L 840.8671875 637 L 704 637 L 704 608 Z Z" stroke-miterlimit="10"/></g><g transform="translate(-118,-196) scale(1,1)"><g><path fill="none" stroke="none"/><text fill="#000000" stroke="none" font-family="Arial" font-size="13px" font-style="normal" font-weight="bold" text-decoration="none" x="744.6181640625" y="625.5">Executor</text></g></g><g transform="translate(-118,-196) scale(1,1)"><path fill="none" stroke="#000000" d="M 482 510 L 733 607" stroke-miterlimit="10"/></g><g transform="translate(-118,-196) scale(1,1)"><path fill="none" stroke="#000000" d="M 842 622 L 903 622" stroke-miterlimit="10"/></g><g transform="translate(-118,-196) scale(1,1)"><path fill="none" stroke="#000000" d="M 1042 622 L 1103 622" stroke-miterlimit="10"/></g><g transform="translate(-118,-196) scale(1,1)"><path fill="none" stroke="#000000" d="M 1103 622 L 1042 622" stroke-miterlimit="10"/></g><g transform="translate(-118,-196) scale(1,1)"><path fill="none" stroke="#000000" d="M 1103 622 L 1042 622" stroke-miterlimit="10"/></g><g transform="translate(-118,-196) scale(1,1)"><path fill="none" stroke="#000000" d="M 1042 622 L 1103 622" stroke-miterlimit="10"/></g><g transform="translate(-118,-196) scale(1,1)"><path fill="none" stroke="#000000" d="M 443 390 L 441 479" stroke-miterlimit="10"/></g><g transform="translate(-118,-196) scale(1,1)"><path fill="none" stroke="#000000" d="M 443 390 L 441 479" stroke-miterlimit="10"/></g><g transform="translate(-118,-196) scale(1,1)"><path fill="none" stroke="#000000" d="M 443 360 L 443 339 L 540 339 L 540 374 L 511 374" stroke-miterlimit="10"/></g><g transform="translate(-118,-196) scale(1,1)"><path fill="none" stroke="#000000" d="M 443 360 L 443 339 L 540 339 L 540 374 L 511 374" stroke-miterlimit="10"/></g><g transform="translate(-118,-196) scale(1,1)"><path fill="none" stroke="#000000" d="M 443 360 L 443 339 L 540 339 L 540 374 L 511 374" stroke-miterlimit="10"/></g><g transform="translate(-118,-196) scale(1,1)"><path fill="none" stroke="#000000" d="M 549 358 L 549 318" stroke-miterlimit="10"/></g><g transform="translate(-118,-196) scale(1,1)"><path fill="#000000" stroke="none" d="M 544 346 L 549 358 L 553 346"/></g><g transform="translate(-118,-196) scale(1,1)"><g><path fill="none" stroke="none"/><text fill="#000000" stroke="none" font-family="Arial" font-size="13px" font-style="normal" font-weight="normal" text-decoration="none" x="446.8046875" y="305.5">2 : check if size huge enough</text></g></g><g transform="translate(-118,-196) scale(1,1)"><path fill="none" stroke="#000000" d="M 443 390 L 441 479" stroke-miterlimit="10"/></g><g transform="translate(-118,-196) scale(1,1)"><path fill="none" stroke="#000000" d="M 451 454 L 451 415" stroke-miterlimit="10"/></g><g transform="translate(-118,-196) scale(1,1)"><path fill="#000000" stroke="none" d="M 446 442 L 451 454 L 455 442"/></g><g transform="translate(-118,-196) scale(1,1)"><g><path fill="none" stroke="none"/><text fill="#000000" stroke="none" font-family="Arial" font-size="13px" font-style="normal" font-weight="normal" text-decoration="none" x="405.330078125" y="420">3 : create(String, ListOfPlayers)</text></g></g><g transform="translate(-118,-196) scale(1,1)"><path fill="none" stroke="#000000" d="M 462 479 L 744 278" stroke-miterlimit="10"/></g><g transform="translate(-118,-196) scale(1,1)"><path fill="none" stroke="#000000" d="M 613 358 L 581 381" stroke-miterlimit="10"/></g><g transform="translate(-118,-196) scale(1,1)"><path fill="#000000" stroke="none" d="M 606 368 L 613 358 L 601 360"/></g><g transform="translate(-118,-196) scale(1,1)"><g><path fill="none" stroke="none"/><text fill="#000000" stroke="none" font-family="Arial" font-size="13px" font-style="normal" font-weight="normal" text-decoration="none" x="639.616943359375" y="382">4 : of(String, Plauers, NotificationProvider)</text></g></g><g transform="translate(-118,-196) scale(1,1)"><path fill="none" stroke="#000000" d="M 837 262 L 911 262" stroke-miterlimit="10"/></g><g transform="translate(-118,-196) scale(1,1)"><path fill="none" stroke="#000000" d="M 894 252 L 854 252" stroke-miterlimit="10"/></g><g transform="translate(-118,-196) scale(1,1)"><path fill="#000000" stroke="none" d="M 882 256 L 894 252 L 882 247"/></g><g transform="translate(-118,-196) scale(1,1)"><g><path fill="none" stroke="none"/><text fill="#000000" stroke="none" font-family="Arial" font-size="13px" font-style="normal" font-weight="normal" text-decoration="none" x="837.964111328125" y="245.5">5 : of(Class)</text></g></g><g transform="translate(-118,-196) scale(1,1)"><path fill="none" stroke="#000000" d="M 492 494 L 655 494" stroke-miterlimit="10"/></g><g transform="translate(-118,-196) scale(1,1)"><path fill="none" stroke="#000000" d="M 593 484 L 553 484" stroke-miterlimit="10"/></g><g transform="translate(-118,-196) scale(1,1)"><path fill="#000000" stroke="none" d="M 581 488 L 593 484 L 581 479"/></g><g transform="translate(-118,-196) scale(1,1)"><g><path fill="none" stroke="none"/><text fill="#000000" stroke="none" font-family="Arial" font-size="13px" font-style="normal" font-weight="normal" text-decoration="none" x="511.307861328125" y="458.5">7 : put(String, GameEngineHandler)</text></g></g><g transform="translate(-118,-196) scale(1,1)"><path fill="none" stroke="#000000" d="M 482 510 L 733 607" stroke-miterlimit="10"/></g><g transform="translate(-118,-196) scale(1,1)"><path fill="none" stroke="#000000" d="M 629 555 L 592 541" stroke-miterlimit="10"/></g><g transform="translate(-118,-196) scale(1,1)"><path fill="#000000" stroke="none" d="M 617 555 L 629 555 L 620 546"/></g><g transform="translate(-118,-196) scale(1,1)"><g><path fill="none" stroke="none"/><text fill="#000000" stroke="none" font-family="Arial" font-size="13px" font-style="normal" font-weight="normal" text-decoration="none" x="622.94921875" y="546.5">8 : Execute(GameEngineHandler)</text></g></g><g transform="translate(-118,-196) scale(1,1)"><path fill="none" stroke="#000000" d="M 842 622 L 903 622" stroke-miterlimit="10"/></g><g transform="translate(-118,-196) scale(1,1)"><path fill="none" stroke="#000000" d="M 892 612 L 852 612" stroke-miterlimit="10"/></g><g transform="translate(-118,-196) scale(1,1)"><path fill="none" stroke="#000000" d="M 880 616 L 892 612 L 880 607" stroke-miterlimit="10"/></g><g transform="translate(-118,-196) scale(1,1)"><g><path fill="none" stroke="none"/><text fill="#000000" stroke="none" font-family="Arial" font-size="13px" font-style="normal" font-weight="normal" text-decoration="none" x="852.57275390625" y="594.5">9 : run</text></g></g><g transform="translate(-118,-196) scale(1,1)"><path fill="none" stroke="#000000" d="M 1042 622 L 1103 622" stroke-miterlimit="10"/></g><g transform="translate(-118,-196) scale(1,1)"><path fill="none" stroke="#000000" d="M 1092 612 L 1052 612" stroke-miterlimit="10"/></g><g transform="translate(-118,-196) scale(1,1)"><path fill="#000000" stroke="none" d="M 1080 616 L 1092 612 L 1080 607"/></g><g transform="translate(-118,-196) scale(1,1)"><g><path fill="none" stroke="none"/><text fill="#000000" stroke="none" font-family="Arial" font-size="13px" font-style="normal" font-weight="normal" text-decoration="none" x="1026.234130859375" y="603.5">10 : lifecycle</text></g></g><g transform="translate(-118,-196) scale(1,1)"><path fill="none" stroke="#000000" d="M 979 248 L 979 227 L 1076 227 L 1076 262 L 1047 262" stroke-miterlimit="10"/></g><g transform="translate(-118,-196) scale(1,1)"><path fill="none" stroke="#000000" d="M 979 248 L 979 227 L 1076 227 L 1076 262 L 1047 262" stroke-miterlimit="10"/></g><g transform="translate(-118,-196) scale(1,1)"><path fill="none" stroke="#000000" d="M 1085 246 L 1085 206" stroke-miterlimit="10"/></g><g transform="translate(-118,-196) scale(1,1)"><path fill="#000000" stroke="none" d="M 1080 234 L 1085 246 L 1089 234"/></g><g transform="translate(-118,-196) scale(1,1)"><g><path fill="none" stroke="none"/><text fill="#000000" stroke="none" font-family="Arial" font-size="13px" font-style="normal" font-weight="normal" text-decoration="none" x="986.294189453125" y="185.5">6 : prepare(GameEngine)</text></g></g><g transform="translate(-118,-196) scale(1,1)"><rect fill="#C0C0C0" stroke="none" x="911" y="711" width="133.236328125" height="29" opacity="0.2"/></g><g transform="translate(-118,-196) scale(1,1)"><rect fill="#ffffff" stroke="none" x="904" y="704" width="133.236328125" height="29"/></g><g transform="translate(-118,-196) scale(1,1)"><path fill="none" stroke="#000000" d="M 904 704 L 1037.236328125 704 L 1037.236328125 733 L 904 733 L 904 704 Z Z" stroke-miterlimit="10"/></g><g transform="translate(-118,-196) scale(1,1)"><rect fill="#ffffff" stroke="none" x="904" y="704" width="133.236328125" height="29"/></g><g transform="translate(-118,-196) scale(1,1)"><path fill="none" stroke="#000000" d="M 904 704 L 1037.236328125 704 L 1037.236328125 733 L 904 733 L 904 704 Z Z" stroke-miterlimit="10"/></g><g transform="translate(-118,-196) scale(1,1)"><g><path fill="none" stroke="none"/><text fill="#000000" stroke="none" font-family="Arial" font-size="13px" font-style="normal" font-weight="bold" text-decoration="none" x="908.5" y="721.5">NotificationProvider</text></g></g><g transform="translate(-118,-196) scale(1,1)"><path fill="none" stroke="#000000" d="M 972 638 L 970 703" stroke-miterlimit="10"/></g><g transform="translate(-118,-196) scale(1,1)"><path fill="none" stroke="#000000" d="M 980 690 L 981 651" stroke-miterlimit="10"/></g><g transform="translate(-118,-196) scale(1,1)"><path fill="#000000" stroke="none" d="M 975 678 L 980 690 L 984 679"/></g><g transform="translate(-118,-196) scale(1,1)"><g><path fill="none" stroke="none"/><text fill="#000000" stroke="none" font-family="Arial" font-size="13px" font-style="normal" font-weight="normal" text-decoration="none" x="918.20068359375" y="664">11 : call onn lyfecycle</text></g></g><g transform="translate(-118,-196) scale(1,1)"><rect fill="#C0C0C0" stroke="none" x="655" y="711" width="202.603515625" height="29" opacity="0.2"/></g><g transform="translate(-118,-196) scale(1,1)"><rect fill="#ffffff" stroke="none" x="648" y="704" width="202.603515625" height="29"/></g><g transform="translate(-118,-196) scale(1,1)"><path fill="none" stroke="#000000" d="M 648 704 L 850.603515625 704 L 850.603515625 733 L 648 733 L 648 704 Z Z" stroke-miterlimit="10"/></g><g transform="translate(-118,-196) scale(1,1)"><rect fill="#ffffff" stroke="none" x="648" y="704" width="202.603515625" height="29"/></g><g transform="translate(-118,-196) scale(1,1)"><path fill="none" stroke="#000000" d="M 648 704 L 850.603515625 704 L 850.603515625 733 L 648 733 L 648 704 Z Z" stroke-miterlimit="10"/></g><g transform="translate(-118,-196) scale(1,1)"><g><path fill="none" stroke="none"/><text fill="#000000" stroke="none" font-family="Arial" font-size="13px" font-style="normal" font-weight="bold" text-decoration="none" x="652.5" y="721.5">CommunicationServiceAdapter</text></g></g><g transform="translate(-118,-196) scale(1,1)"><rect fill="#C0C0C0" stroke="none" x="367" y="759" width="153.4853515625" height="29" opacity="0.2"/></g><g transform="translate(-118,-196) scale(1,1)"><rect fill="#ffffff" stroke="none" x="360" y="752" width="153.4853515625" height="29"/></g><g transform="translate(-118,-196) scale(1,1)"><path fill="none" stroke="#000000" d="M 360 752 L 513.4853515625 752 L 513.4853515625 781 L 360 781 L 360 752 Z Z" stroke-miterlimit="10"/></g><g transform="translate(-118,-196) scale(1,1)"><rect fill="#ffffff" stroke="none" x="360" y="752" width="153.4853515625" height="29"/></g><g transform="translate(-118,-196) scale(1,1)"><path fill="none" stroke="#000000" d="M 360 752 L 513.4853515625 752 L 513.4853515625 781 L 360 781 L 360 752 Z Z" stroke-miterlimit="10"/></g><g transform="translate(-118,-196) scale(1,1)"><g><path fill="none" stroke="none"/><text fill="#000000" stroke="none" font-family="Arial" font-size="13px" font-style="normal" font-weight="bold" text-decoration="none" x="364.5" y="769.5">CommunicationService</text></g></g><g transform="translate(-118,-196) scale(1,1)"><path fill="none" stroke="#000000" d="M 903 718 L 852 718" stroke-miterlimit="10"/></g><g transform="translate(-118,-196) scale(1,1)"><path fill="none" stroke="#000000" d="M 903 718 L 852 718" stroke-miterlimit="10"/></g><g transform="translate(-118,-196) scale(1,1)"><path fill="none" stroke="#000000" d="M 856 728 L 896 728" stroke-miterlimit="10"/></g><g transform="translate(-118,-196) scale(1,1)"><path fill="#000000" stroke="none" d="M 867 723 L 856 728 L 867 732"/></g><g transform="translate(-118,-196) scale(1,1)"><g><path fill="none" stroke="none"/><text fill="#000000" stroke="none" font-family="Arial" font-size="13px" font-style="normal" font-weight="normal" text-decoration="none" x="812.853271484375" y="745.5">13 : noify(Identifiable)</text></g></g><g transform="translate(-118,-196) scale(1,1)"><path fill="none" stroke="#000000" d="M 647 734 L 514 754" stroke-miterlimit="10"/></g><g transform="translate(-118,-196) scale(1,1)"><path fill="none" stroke="#000000" d="M 562 756 L 601 751" stroke-miterlimit="10"/></g><g transform="translate(-118,-196) scale(1,1)"><path fill="#000000" stroke="none" d="M 572 750 L 562 756 L 573 759"/></g><g transform="translate(-118,-196) scale(1,1)"><g><path fill="none" stroke="none"/><text fill="#000000" stroke="none" font-family="Arial" font-size="13px" font-style="normal" font-weight="normal" text-decoration="none" x="532.274169921875" y="730">15 : sendTo(long)</text></g></g><g transform="translate(-118,-196) scale(1,1)"><rect fill="#C0C0C0" stroke="none" x="391" y="639" width="126.75537109375" height="29" opacity="0.2"/></g><g transform="translate(-118,-196) scale(1,1)"><rect fill="#ffffff" stroke="none" x="384" y="632" width="126.75537109375" height="29"/></g><g transform="translate(-118,-196) scale(1,1)"><path fill="none" stroke="#000000" d="M 384 632 L 510.75537109375 632 L 510.75537109375 661 L 384 661 L 384 632 Z Z" stroke-miterlimit="10"/></g><g transform="translate(-118,-196) scale(1,1)"><rect fill="#ffffff" stroke="none" x="384" y="632" width="126.75537109375" height="29"/></g><g transform="translate(-118,-196) scale(1,1)"><path fill="none" stroke="#000000" d="M 384 632 L 510.75537109375 632 L 510.75537109375 661 L 384 661 L 384 632 Z Z" stroke-miterlimit="10"/></g><g transform="translate(-118,-196) scale(1,1)"><g><path fill="none" stroke="none"/><text fill="#000000" stroke="none" font-family="Arial" font-size="13px" font-style="normal" font-weight="bold" text-decoration="none" x="388.5" y="649.5">IdentifiableBrocker</text></g></g><g transform="translate(-118,-196) scale(1,1)"><path fill="none" stroke="#000000" d="M 686 703 L 512 661" stroke-miterlimit="10"/></g><g transform="translate(-118,-196) scale(1,1)"><path fill="none" stroke="#000000" d="M 577 687 L 615 696" stroke-miterlimit="10"/></g><g transform="translate(-118,-196) scale(1,1)"><path fill="#000000" stroke="none" d="M 588 685 L 577 687 L 586 694"/></g><g transform="translate(-118,-196) scale(1,1)"><g><path fill="none" stroke="none"/><text fill="#000000" stroke="none" font-family="Arial" font-size="13px" font-style="normal" font-weight="normal" text-decoration="none" x="523.524169921875" y="649">14 : id(Identifiable)</text></g></g><g transform="translate(-118,-196) scale(1,1)"><rect fill="#ffffff" stroke="none" x="128" y="736" width="144" height="50"/></g><g transform="translate(-118,-196) scale(1,1)"><path fill="none" stroke="#000000" d="M 128 736 L 272 736 L 272 786 L 128 786 L 128 736 Z Z" stroke-miterlimit="10"/></g><g transform="translate(-118,-196) scale(1,1)"><g><path fill="none" stroke="none"/><text fill="#000000" stroke="none" font-family="Arial" font-size="13px" font-style="normal" font-weight="normal" text-decoration="none" x="133" y="750">Not Implimented yet</text></g></g></g></svg>