<svg version="1.2" xmlns="http://www.w3.org/2000/svg" viewBox="0 0 1095 600" width="1095" height="600">
	<title>creategame-svg</title>
	<style>
		tspan { white-space:pre } 
		.s0 { opacity: .2;fill: #c0c0c0 } 
		.s1 { fill: #ffffff } 
		.s2 { fill: none;stroke: #000000 } 
		.s3 { fill: none } 
		.t4 { font-size: 13px;fill: #000000;font-family: "Arial" } 
		.s5 { fill: #000000 } 
	</style>
	<rect width="1095" height="600" id="Color Fill 1" style="fill: #ffffff"/>
	<g id="Layer">
		<g id="Layer">
			<path id="Layer" class="s0" d="m17 171h145.5v29h-145.5z"/>
		</g>
		<g id="Layer">
			<path id="Layer" class="s1" d="m10 164h145.5v29h-145.5z"/>
		</g>
		<g id="Layer">
			<path id="Layer" class="s2" d="m10 164h145.5v29h-145.5z"/>
		</g>
		<g id="Layer">
			<path id="Layer" class="s1" d="m10 164h145.5v29h-145.5z"/>
		</g>
		<g id="Layer">
			<path id="Layer" class="s2" d="m10 164h145.5v29h-145.5z"/>
		</g>
		<g id="Layer">
			<g id="Layer">
				<path id="Layer" class="s3" d=""/>
				<text id="GameSeachController" style="transform: matrix(1,0,0,1,14.5,181.5)" >
					<tspan x="0" y="0" class="t4">GameSeachController
</tspan>
				</text>
			</g>
		</g>
		<g id="Layer">
			<path id="Layer" class="s0" d="m265 171h134.8v29h-134.8z"/>
		</g>
		<g id="Layer">
			<path id="Layer" class="s1" d="m258 164h134.8v29h-134.8z"/>
		</g>
		<g id="Layer">
			<path id="Layer" class="s2" d="m258 164h134.8v29h-134.8z"/>
		</g>
		<g id="Layer">
			<path id="Layer" class="s1" d="m258 164h134.8v29h-134.8z"/>
		</g>
		<g id="Layer">
			<path id="Layer" class="s2" d="m258 164h134.8v29h-134.8z"/>
		</g>
		<g id="Layer">
			<g id="Layer">
				<path id="Layer" class="s3" d=""/>
				<text id="GameSearchService" style="transform: matrix(1,0,0,1,262.5,181.5)" >
					<tspan x="0" y="0" class="t4">GameSearchService
</tspan>
				</text>
			</g>
		</g>
		<g id="Layer">
			<path id="Layer" class="s2" d="m157 178h100"/>
		</g>
		<g id="Layer">
			<path id="Layer" class="s2" d="m157 178h100"/>
		</g>
		<g id="Layer">
			<path id="Layer" class="s2" d="m227 168h-40"/>
		</g>
		<g id="Layer">
			<path id="Layer" class="s5" d="m215 163l12 5-12 4"/>
		</g>
		<g id="Layer">
			<g id="Layer">
				<path id="Layer" class="s3" d=""/>
				<text id="1 : joinQueue(String name)" style="transform: matrix(1,0,0,1,136.959,150.5)" >
					<tspan x="0" y="0" class="t4">1 : joinQueue(String name)
</tspan>
				</text>
			</g>
		</g>
		<g id="Layer">
			<path id="Layer" class="s2" d="m157 178h100"/>
		</g>
		<g id="Layer">
			<path id="Layer" class="s0" d="m281 291h99v29h-99z"/>
		</g>
		<g id="Layer">
			<path id="Layer" class="s1" d="m274 284h99v29h-99z"/>
		</g>
		<g id="Layer">
			<path id="Layer" class="s2" d="m274 284h99v29h-99z"/>
		</g>
		<g id="Layer">
			<path id="Layer" class="s1" d="m274 284h99v29h-99z"/>
		</g>
		<g id="Layer">
			<path id="Layer" class="s2" d="m274 284h99v29h-99z"/>
		</g>
		<g id="Layer">
			<g id="Layer">
				<path id="Layer" class="s3" d=""/>
				<text id="GameService" style="transform: matrix(1,0,0,1,282.304,301.5)" >
					<tspan x="0" y="0" class="t4">GameService
</tspan>
				</text>
			</g>
		</g>
		<g id="Layer">
			<path id="Layer" class="s2" d="m157 178h100"/>
		</g>
		<g id="Layer">
			<path id="Layer" class="s0" d="m585 59h140.5v29h-140.5z"/>
		</g>
		<g id="Layer">
			<path id="Layer" class="s1" d="m578 52h140.5v29h-140.5z"/>
		</g>
		<g id="Layer">
			<path id="Layer" class="s2" d="m578 52h140.5v29h-140.5z"/>
		</g>
		<g id="Layer">
			<path id="Layer" class="s1" d="m578 52h140.5v29h-140.5z"/>
		</g>
		<g id="Layer">
			<path id="Layer" class="s2" d="m578 52h140.5v29h-140.5z"/>
		</g>
		<g id="Layer">
			<g id="Layer">
				<path id="Layer" class="s3" d=""/>
				<text id="GameHandlerFactory" style="transform: matrix(1,0,0,1,582.5,69.5)" >
					<tspan x="0" y="0" class="t4">GameHandlerFactory
</tspan>
				</text>
			</g>
		</g>
		<g id="Layer">
			<path id="Layer" class="s0" d="m801 59h135.4v29h-135.4z"/>
		</g>
		<g id="Layer">
			<path id="Layer" class="s1" d="m794 52h135.4v29h-135.4z"/>
		</g>
		<g id="Layer">
			<path id="Layer" class="s2" d="m794 52h135.4v29h-135.4z"/>
		</g>
		<g id="Layer">
			<path id="Layer" class="s1" d="m794 52h135.4v29h-135.4z"/>
		</g>
		<g id="Layer">
			<path id="Layer" class="s2" d="m794 52h135.4v29h-135.4z"/>
		</g>
		<g id="Layer">
			<g id="Layer">
				<path id="Layer" class="s3" d=""/>
				<text id="GameEngineFactory" style="transform: matrix(1,0,0,1,798.5,69.5)" >
					<tspan x="0" y="0" class="t4">GameEngineFactory
</tspan>
				</text>
			</g>
		</g>
		<g id="Layer">
			<path id="Layer" class="s2" d="m344 283l282-201"/>
		</g>
		<g id="Layer">
			<path id="Layer" class="s2" d="m719 66h74"/>
		</g>
		<g id="Layer">
			<path id="Layer" class="s2" d="m719 66h74"/>
		</g>
		<g id="Layer">
			<path id="Layer" class="s0" d="m545 291h212v29h-212z"/>
		</g>
		<g id="Layer">
			<path id="Layer" class="s1" d="m538 284h212v29h-212z"/>
		</g>
		<g id="Layer">
			<path id="Layer" class="s2" d="m538 284h212v29h-212z"/>
		</g>
		<g id="Layer">
			<path id="Layer" class="s1" d="m538 284h212v29h-212z"/>
		</g>
		<g id="Layer">
			<path id="Layer" class="s2" d="m538 284h212v29h-212z"/>
		</g>
		<g id="Layer">
			<g id="Layer">
				<path id="Layer" class="s3" d=""/>
				<text id="Map.String.GameEngineHandler" style="transform: matrix(1,0,0,1,544.665,301.5)" >
					<tspan x="0" y="0" class="t4">Map.String.GameEngineHandler
</tspan>
				</text>
			</g>
		</g>
		<g id="Layer">
			<path id="Layer" class="s2" d="m374 298h163"/>
		</g>
		<g id="Layer">
			<path id="Layer" class="s0" d="m993 419h99v29h-99z"/>
		</g>
		<g id="Layer">
			<path id="Layer" class="s1" d="m986 412h99v29h-99z"/>
		</g>
		<g id="Layer">
			<path id="Layer" class="s2" d="m986 412h99v29h-99z"/>
		</g>
		<g id="Layer">
			<path id="Layer" class="s1" d="m986 412h99v29h-99z"/>
		</g>
		<g id="Layer">
			<path id="Layer" class="s2" d="m986 412h99v29h-99z"/>
		</g>
		<g id="Layer">
			<g id="Layer">
				<path id="Layer" class="s3" d=""/>
				<text id="GameEngine" style="transform: matrix(1,0,0,1,995.767,429.5)" >
					<tspan x="0" y="0" class="t4">GameEngine
</tspan>
				</text>
			</g>
		</g>
		<g id="Layer">
			<path id="Layer" class="s0" d="m793 419h136.9v29h-136.9z"/>
		</g>
		<g id="Layer">
			<path id="Layer" class="s1" d="m786 412h136.9v29h-136.9z"/>
		</g>
		<g id="Layer">
			<path id="Layer" class="s2" d="m786 412h136.9v29h-136.9z"/>
		</g>
		<g id="Layer">
			<path id="Layer" class="s1" d="m786 412h136.9v29h-136.9z"/>
		</g>
		<g id="Layer">
			<path id="Layer" class="s2" d="m786 412h136.9v29h-136.9z"/>
		</g>
		<g id="Layer">
			<g id="Layer">
				<path id="Layer" class="s3" d=""/>
				<text id="GameEngineHandler" style="transform: matrix(1,0,0,1,790.5,429.5)" >
					<tspan x="0" y="0" class="t4">GameEngineHandler
</tspan>
				</text>
			</g>
		</g>
		<g id="Layer">
			<path id="Layer" class="s2" d="m344 283l282-201"/>
		</g>
		<g id="Layer">
			<path id="Layer" class="s0" d="m593 419h136.9v29h-136.9z"/>
		</g>
		<g id="Layer">
			<path id="Layer" class="s1" d="m586 412h136.9v29h-136.9z"/>
		</g>
		<g id="Layer">
			<path id="Layer" class="s2" d="m586 412h136.9v29h-136.9z"/>
		</g>
		<g id="Layer">
			<path id="Layer" class="s1" d="m586 412h136.9v29h-136.9z"/>
		</g>
		<g id="Layer">
			<path id="Layer" class="s2" d="m586 412h136.9v29h-136.9z"/>
		</g>
		<g id="Layer">
			<g id="Layer">
				<path id="Layer" class="s3" d=""/>
				<text id="Executor" style="transform: matrix(1,0,0,1,626.618,429.5)" >
					<tspan x="0" y="0" class="t4">Executor
</tspan>
				</text>
			</g>
		</g>
		<g id="Layer">
			<path id="Layer" class="s2" d="m364 314l251 97"/>
		</g>
		<g id="Layer">
			<path id="Layer" class="s2" d="m724 426h61"/>
		</g>
		<g id="Layer">
			<path id="Layer" class="s2" d="m924 426h61"/>
		</g>
		<g id="Layer">
			<path id="Layer" class="s2" d="m985 426h-61"/>
		</g>
		<g id="Layer">
			<path id="Layer" class="s2" d="m985 426h-61"/>
		</g>
		<g id="Layer">
			<path id="Layer" class="s2" d="m924 426h61"/>
		</g>
		<g id="Layer">
			<path id="Layer" class="s2" d="m325 194l-2 89"/>
		</g>
		<g id="Layer">
			<path id="Layer" class="s2" d="m325 194l-2 89"/>
		</g>
		<g id="Layer">
			<path id="Layer" class="s2" d="m325 164v-21h97v35h-29"/>
		</g>
		<g id="Layer">
			<path id="Layer" class="s2" d="m325 164v-21h97v35h-29"/>
		</g>
		<g id="Layer">
			<path id="Layer" class="s2" d="m325 164v-21h97v35h-29"/>
		</g>
		<g id="Layer">
			<path id="Layer" class="s2" d="m431 162v-40"/>
		</g>
		<g id="Layer">
			<path id="Layer" class="s5" d="m435 150l-4 12-5-12"/>
		</g>
		<g id="Layer">
			<g id="Layer">
				<path id="Layer" class="s3" d=""/>
				<text id="2 : check if size huge enough" style="transform: matrix(1,0,0,1,328.805,109.5)" >
					<tspan x="0" y="0" class="t4">2 : check if size huge enough
</tspan>
				</text>
			</g>
		</g>
		<g id="Layer">
			<path id="Layer" class="s2" d="m325 194l-2 89"/>
		</g>
		<g id="Layer">
			<path id="Layer" class="s2" d="m333 258v-39"/>
		</g>
		<g id="Layer">
			<path id="Layer" class="s5" d="m337 246l-4 12-5-12"/>
		</g>
		<g id="Layer">
			<g id="Layer">
				<path id="Layer" class="s3" d=""/>
				<text id="3 : create(String, ListOfPlayers)" style="transform: matrix(1,0,0,1,287.33,224)" >
					<tspan x="0" y="0" class="t4">3 : create(String, ListOfPlayers)
</tspan>
				</text>
			</g>
		</g>
		<g id="Layer">
			<path id="Layer" class="s2" d="m344 283l282-201"/>
		</g>
		<g id="Layer">
			<path id="Layer" class="s2" d="m495 162l-32 23"/>
		</g>
		<g id="Layer">
			<path id="Layer" class="s5" d="m483 164l12-2-7 10"/>
		</g>
		<g id="Layer">
			<g id="Layer">
				<path id="Layer" class="s3" d=""/>
				<text id="4 : of(String, Plauers, NotificationProvider)" style="transform: matrix(1,0,0,1,521.617,186)" >
					<tspan x="0" y="0" class="t4">4 : of(String, Plauers, NotificationProvider)
</tspan>
				</text>
			</g>
		</g>
		<g id="Layer">
			<path id="Layer" class="s2" d="m719 66h74"/>
		</g>
		<g id="Layer">
			<path id="Layer" class="s2" d="m776 56h-40"/>
		</g>
		<g id="Layer">
			<path id="Layer" class="s5" d="m764 51l12 5-12 4"/>
		</g>
		<g id="Layer">
			<g id="Layer">
				<path id="Layer" class="s3" d=""/>
				<text id="5 : of(Class)" style="transform: matrix(1,0,0,1,719.964,49.5)" >
					<tspan x="0" y="0" class="t4">5 : of(Class)
</tspan>
				</text>
			</g>
		</g>
		<g id="Layer">
			<path id="Layer" class="s2" d="m374 298h163"/>
		</g>
		<g id="Layer">
			<path id="Layer" class="s2" d="m475 288h-40"/>
		</g>
		<g id="Layer">
			<path id="Layer" class="s5" d="m463 283l12 5-12 4"/>
		</g>
		<g id="Layer">
			<g id="Layer">
				<path id="Layer" class="s3" d=""/>
				<text id="7 : put(String, GameEngineHandler)" style="transform: matrix(1,0,0,1,393.308,262.5)" >
					<tspan x="0" y="0" class="t4">7 : put(String, GameEngineHandler)
</tspan>
				</text>
			</g>
		</g>
		<g id="Layer">
			<path id="Layer" class="s2" d="m364 314l251 97"/>
		</g>
		<g id="Layer">
			<path id="Layer" class="s2" d="m511 359l-37-14"/>
		</g>
		<g id="Layer">
			<path id="Layer" class="s5" d="m502 350l9 9h-12"/>
		</g>
		<g id="Layer">
			<g id="Layer">
				<path id="Layer" class="s3" d=""/>
				<text id="8 : Execute(GameEngineHandler)" style="transform: matrix(1,0,0,1,504.949,350.5)" >
					<tspan x="0" y="0" class="t4">8 : Execute(GameEngineHandler)
</tspan>
				</text>
			</g>
		</g>
		<g id="Layer">
			<path id="Layer" class="s2" d="m724 426h61"/>
		</g>
		<g id="Layer">
			<path id="Layer" class="s2" d="m774 416h-40"/>
		</g>
		<g id="Layer">
			<path id="Layer" class="s2" d="m762 411l12 5-12 4"/>
		</g>
		<g id="Layer">
			<g id="Layer">
				<path id="Layer" class="s3" d=""/>
				<text id="9 : run" style="transform: matrix(1,0,0,1,734.573,398.5)" >
					<tspan x="0" y="0" class="t4">9 : run
</tspan>
				</text>
			</g>
		</g>
		<g id="Layer">
			<path id="Layer" class="s2" d="m924 426h61"/>
		</g>
		<g id="Layer">
			<path id="Layer" class="s2" d="m974 416h-40"/>
		</g>
		<g id="Layer">
			<path id="Layer" class="s5" d="m962 411l12 5-12 4"/>
		</g>
		<g id="Layer">
			<g id="Layer">
				<path id="Layer" class="s3" d=""/>
				<text id="10 : lifecycle" style="transform: matrix(1,0,0,1,908.234,407.5)" >
					<tspan x="0" y="0" class="t4">10 : lifecycle
</tspan>
				</text>
			</g>
		</g>
		<g id="Layer">
			<path id="Layer" class="s2" d="m861 52v-21h97v35h-29"/>
		</g>
		<g id="Layer">
			<path id="Layer" class="s2" d="m861 52v-21h97v35h-29"/>
		</g>
		<g id="Layer">
			<path id="Layer" class="s2" d="m967 50v-40"/>
		</g>
		<g id="Layer">
			<path id="Layer" class="s5" d="m971 38l-4 12-5-12"/>
		</g>
		<g id="Layer">
			<g id="Layer">
				<path id="Layer" class="s3" d=""/>
				<text id="6 : prepare(GameEngine)" style="transform: matrix(1,0,0,1,868.294,-10.5)" >
					<tspan x="0" y="0" class="t4">6 : prepare(GameEngine)
</tspan>
				</text>
			</g>
		</g>
		<g id="Layer">
			<path id="Layer" class="s0" d="m793 515h133.2v29h-133.2z"/>
		</g>
		<g id="Layer">
			<path id="Layer" class="s1" d="m786 508h133.2v29h-133.2z"/>
		</g>
		<g id="Layer">
			<path id="Layer" class="s2" d="m786 508h133.2v29h-133.2z"/>
		</g>
		<g id="Layer">
			<path id="Layer" class="s1" d="m786 508h133.2v29h-133.2z"/>
		</g>
		<g id="Layer">
			<path id="Layer" class="s2" d="m786 508h133.2v29h-133.2z"/>
		</g>
		<g id="Layer">
			<g id="Layer">
				<path id="Layer" class="s3" d=""/>
				<text id="NotificationProvider" style="transform: matrix(1,0,0,1,790.5,525.5)" >
					<tspan x="0" y="0" class="t4">NotificationProvider
</tspan>
				</text>
			</g>
		</g>
		<g id="Layer">
			<path id="Layer" class="s2" d="m854 442l-2 65"/>
		</g>
		<g id="Layer">
			<path id="Layer" class="s2" d="m862 494l1-39"/>
		</g>
		<g id="Layer">
			<path id="Layer" class="s5" d="m866 483l-4 11-5-12"/>
		</g>
		<g id="Layer">
			<g id="Layer">
				<path id="Layer" class="s3" d=""/>
				<text id="11 : call onn lyfecycle" style="transform: matrix(1,0,0,1,800.201,468)" >
					<tspan x="0" y="0" class="t4">11 : call onn lyfecycle
</tspan>
				</text>
			</g>
		</g>
		<g id="Layer">
			<path id="Layer" class="s0" d="m537 515h202.6v29h-202.6z"/>
		</g>
		<g id="Layer">
			<path id="Layer" class="s1" d="m530 508h202.6v29h-202.6z"/>
		</g>
		<g id="Layer">
			<path id="Layer" class="s2" d="m530 508h202.6v29h-202.6z"/>
		</g>
		<g id="Layer">
			<path id="Layer" class="s1" d="m530 508h202.6v29h-202.6z"/>
		</g>
		<g id="Layer">
			<path id="Layer" class="s2" d="m530 508h202.6v29h-202.6z"/>
		</g>
		<g id="Layer">
			<g id="Layer">
				<path id="Layer" class="s3" d=""/>
				<text id="CommunicationServiceAdapter" style="transform: matrix(1,0,0,1,534.5,525.5)" >
					<tspan x="0" y="0" class="t4">CommunicationServiceAdapter
</tspan>
				</text>
			</g>
		</g>
		<g id="Layer">
			<path id="Layer" class="s0" d="m249 563h153.5v29h-153.5z"/>
		</g>
		<g id="Layer">
			<path id="Layer" class="s1" d="m242 556h153.5v29h-153.5z"/>
		</g>
		<g id="Layer">
			<path id="Layer" class="s2" d="m242 556h153.5v29h-153.5z"/>
		</g>
		<g id="Layer">
			<path id="Layer" class="s1" d="m242 556h153.5v29h-153.5z"/>
		</g>
		<g id="Layer">
			<path id="Layer" class="s2" d="m242 556h153.5v29h-153.5z"/>
		</g>
		<g id="Layer">
			<g id="Layer">
				<path id="Layer" class="s3" d=""/>
				<text id="CommunicationService" style="transform: matrix(1,0,0,1,246.5,573.5)" >
					<tspan x="0" y="0" class="t4">CommunicationService
</tspan>
				</text>
			</g>
		</g>
		<g id="Layer">
			<path id="Layer" class="s2" d="m785 522h-51"/>
		</g>
		<g id="Layer">
			<path id="Layer" class="s2" d="m785 522h-51"/>
		</g>
		<g id="Layer">
			<path id="Layer" class="s2" d="m738 532h40"/>
		</g>
		<g id="Layer">
			<path id="Layer" class="s5" d="m749 536l-11-4 11-5"/>
		</g>
		<g id="Layer">
			<g id="Layer">
				<path id="Layer" class="s3" d=""/>
				<text id="13 : noify(Identifiable)" style="transform: matrix(1,0,0,1,694.853,549.5)" >
					<tspan x="0" y="0" class="t4">13 : noify(Identifiable)
</tspan>
				</text>
			</g>
		</g>
		<g id="Layer">
			<path id="Layer" class="s2" d="m529 538l-133 20"/>
		</g>
		<g id="Layer">
			<path id="Layer" class="s2" d="m444 560l39-5"/>
		</g>
		<g id="Layer">
			<path id="Layer" class="s5" d="m455 563l-11-3 10-6"/>
		</g>
		<g id="Layer">
			<g id="Layer">
				<path id="Layer" class="s3" d=""/>
				<text id="15 : sendTo(long)" style="transform: matrix(1,0,0,1,414.274,534)" >
					<tspan x="0" y="0" class="t4">15 : sendTo(long)
</tspan>
				</text>
			</g>
		</g>
		<g id="Layer">
			<path id="Layer" class="s0" d="m273 443h126.8v29h-126.8z"/>
		</g>
		<g id="Layer">
			<path id="Layer" class="s1" d="m266 436h126.8v29h-126.8z"/>
		</g>
		<g id="Layer">
			<path id="Layer" class="s2" d="m266 436h126.8v29h-126.8z"/>
		</g>
		<g id="Layer">
			<path id="Layer" class="s1" d="m266 436h126.8v29h-126.8z"/>
		</g>
		<g id="Layer">
			<path id="Layer" class="s2" d="m266 436h126.8v29h-126.8z"/>
		</g>
		<g id="Layer">
			<g id="Layer">
				<path id="Layer" class="s3" d=""/>
				<text id="IdentifiableBrocker" style="transform: matrix(1,0,0,1,270.5,453.5)" >
					<tspan x="0" y="0" class="t4">IdentifiableBrocker
</tspan>
				</text>
			</g>
		</g>
		<g id="Layer">
			<path id="Layer" class="s2" d="m568 507l-174-42"/>
		</g>
		<g id="Layer">
			<path id="Layer" class="s2" d="m459 491l38 9"/>
		</g>
		<g id="Layer">
			<path id="Layer" class="s5" d="m468 498l-9-7 11-2"/>
		</g>
		<g id="Layer">
			<g id="Layer">
				<path id="Layer" class="s3" d=""/>
				<text id="14 : id(Identifiable)" style="transform: matrix(1,0,0,1,405.524,453)" >
					<tspan x="0" y="0" class="t4">14 : id(Identifiable)
</tspan>
				</text>
			</g>
		</g>
		<g id="Layer">
			<path id="Layer" class="s1" d="m10 540h144v50h-144z"/>
		</g>
		<g id="Layer">
			<path id="Layer" class="s2" d="m10 540h144v50h-144z"/>
		</g>
		<g id="Layer">
			<g id="Layer">
				<path id="Layer" class="s3" d=""/>
				<text id="Not Implimented yet" style="transform: matrix(1,0,0,1,15,554)" >
					<tspan x="0" y="0" class="t4">Not Implimented yet
</tspan>
				</text>
			</g>
		</g>
	</g>
</svg>